<svg width="216" height="127" viewBox="0 0 216 127" fill="none" xmlns="http://www.w3.org/2000/svg">
<path d="M66.544 24.256C66.544 25.3653 65.1787 26.816 62.448 28.608C59.8027 30.4 56.2187 32.448 51.696 34.752C47.1733 37.056 42.1813 39.5307 36.72 42.176C31.344 44.8213 25.9253 47.552 20.464 50.368C25.072 53.6107 29.68 56.64 34.288 59.456C38.896 62.272 43.0773 64.832 46.832 67.136C50.672 69.44 53.7013 71.488 55.92 73.28C58.224 74.9867 59.376 76.3947 59.376 77.504C59.376 79.1253 58.7787 80.704 57.584 82.24C56.3893 83.6907 54.4693 84.416 51.824 84.416C51.056 84.416 49.4773 83.904 47.088 82.88C44.6987 81.7707 41.7973 80.32 38.384 78.528C34.9707 76.6507 31.2587 74.56 27.248 72.256C23.3227 69.952 19.3547 67.52 15.344 64.96C11.4187 62.3147 7.74933 59.712 4.336 57.152C2.8 56.0427 1.73333 54.9333 1.136 53.824C0.624 52.6293 0.368 51.52 0.368 50.496C0.368 49.0453 0.752 47.68 1.52 46.4C2.37333 45.0347 3.78133 43.7973 5.744 42.688C9.66933 40.2987 13.8507 37.952 18.288 35.648C22.8107 33.2587 27.2907 31.04 31.728 28.992C36.2507 26.8587 40.4747 25.024 44.4 23.488C48.3253 21.8667 51.6533 20.5867 54.384 19.648C57.2 18.7093 59.12 18.24 60.144 18.24C62.5333 18.24 64.1973 18.752 65.136 19.776C66.0747 20.7147 66.544 22.208 66.544 24.256ZM74.947 126.528C73.0697 126.528 71.619 125.675 70.595 123.968C69.571 122.347 69.059 120.512 69.059 118.464C69.059 117.184 69.7417 114.752 71.107 111.168C72.4723 107.669 74.307 103.36 76.611 98.24C79.0003 93.0347 81.731 87.36 84.803 81.216C87.875 74.9867 91.1603 68.544 94.659 61.888C98.1577 55.1467 101.656 48.448 105.155 41.792C108.739 35.136 112.195 28.8213 115.523 22.848C118.851 16.8747 121.923 11.5413 124.739 6.84799C125.848 5.14133 127.171 3.64799 128.707 2.368C130.328 1.088 132.12 0.447998 134.083 0.447998C136.046 0.447998 137.624 1.25866 138.819 2.88C140.099 4.416 140.739 6.25066 140.739 8.384C140.739 9.152 139.928 11.2853 138.307 14.784C136.686 18.1973 134.467 22.6773 131.651 28.224C128.835 33.6853 125.55 39.9573 121.795 47.04C118.126 54.1227 114.158 61.7173 109.891 69.824C105.71 77.8453 101.4 86.08 96.963 94.528C92.611 102.976 88.3443 111.381 84.163 119.744C83.3097 121.621 82.0723 123.2 80.451 124.48C78.8297 125.845 76.995 126.528 74.947 126.528ZM210.457 57.152C206.446 59.7973 202.094 62.4427 197.401 65.088C192.793 67.648 188.142 70.08 183.449 72.384C178.756 74.688 174.404 76.7787 170.393 78.656C166.382 80.448 162.969 81.856 160.153 82.88C157.337 83.904 155.502 84.416 154.649 84.416C152.857 84.416 151.278 83.8613 149.913 82.752C148.548 81.6427 147.865 80.2773 147.865 78.656C147.865 77.2907 149.23 75.584 151.961 73.536C154.777 71.488 158.446 69.184 162.969 66.624C167.492 64.064 172.484 61.3333 177.945 58.432C183.492 55.5307 188.996 52.544 194.457 49.472C189.934 46.5707 185.454 43.84 181.017 41.28C176.665 38.72 172.654 36.416 168.985 34.368C165.401 32.2347 162.542 30.4 160.409 28.864C158.276 27.2427 157.209 25.9627 157.209 25.024C157.209 23.0613 157.806 21.44 159.001 20.16C160.196 18.88 162.03 18.24 164.505 18.24C165.188 18.24 166.681 18.7093 168.985 19.648C171.289 20.5867 174.105 21.8667 177.433 23.488C180.761 25.1093 184.345 26.9867 188.185 29.12C192.11 31.168 195.993 33.344 199.833 35.648C203.758 37.952 207.385 40.256 210.713 42.56C212.42 43.7547 213.572 44.992 214.169 46.272C214.852 47.4667 215.193 48.6187 215.193 49.728C215.193 51.008 214.809 52.288 214.041 53.568C213.358 54.7627 212.164 55.9573 210.457 57.152Z" fill="white"/>
</svg>
