<svg width="1065" height="202" viewBox="0 0 1065 202" fill="none" xmlns="http://www.w3.org/2000/svg">
<rect y="79" width="1065" height="12" fill="#E4E4E4"/>
<rect x="924" y="79" width="9" height="74" fill="#E4E4E4"/>
<rect x="99" y="79" width="9" height="76" fill="#E4E4E4"/>
<rect x="101" y="60" width="830" height="50" rx="25" fill="#107DFE"/>
<path d="M54.488 193.376C53.4213 193.376 52.664 193.12 52.216 192.608C51.7893 192.117 51.576 191.605 51.576 191.072C51.576 190.603 51.6827 190.165 51.896 189.76C52.1307 189.333 52.536 188.992 53.112 188.736C53.688 188.48 54.5093 188.373 55.576 188.416C56.6427 187.861 57.72 187.179 58.808 186.368C59.9173 185.557 60.9733 184.661 61.976 183.68C63 182.699 63.9067 181.696 64.696 180.672C65.5067 179.627 66.136 178.603 66.584 177.6C67.0533 176.576 67.288 175.616 67.288 174.72C67.288 173.76 66.9893 173.035 66.392 172.544C65.816 172.053 65.0053 171.808 63.96 171.808C63.064 171.808 62.2427 171.915 61.496 172.128C60.7493 172.32 60.088 172.555 59.512 172.832C58.936 173.109 58.4453 173.355 58.04 173.568C57.656 173.76 57.3467 173.856 57.112 173.856C56.7067 173.856 56.344 173.685 56.024 173.344C55.704 172.981 55.608 172.512 55.736 171.936C55.8213 171.552 56.0773 171.093 56.504 170.56C56.9307 170.027 57.5173 169.493 58.264 168.96C59.0107 168.427 59.896 167.989 60.92 167.648C61.9653 167.285 63.1387 167.104 64.44 167.104C66.5307 167.104 68.2267 167.744 69.528 169.024C70.8507 170.304 71.512 172.256 71.512 174.88C71.512 176.608 71.0533 178.304 70.136 179.968C69.24 181.632 68.0453 183.211 66.552 184.704C65.0587 186.197 63.4267 187.563 61.656 188.8C63.256 188.736 64.504 188.64 65.4 188.512C66.296 188.363 67.0107 188.235 67.544 188.128C68.0987 188.021 68.632 187.968 69.144 187.968C69.8693 187.968 70.4347 188.117 70.84 188.416C71.2453 188.715 71.448 189.141 71.448 189.696C71.448 190.101 71.3413 190.496 71.128 190.88C70.936 191.264 70.552 191.616 69.976 191.936C69.4 192.235 68.568 192.469 67.48 192.64C66.392 192.832 64.9627 192.928 63.192 192.928C62.1467 192.928 61.0693 192.917 59.96 192.896C58.872 192.875 57.816 192.843 56.792 192.8C56.1947 193.013 55.7253 193.163 55.384 193.248C55.064 193.333 54.7653 193.376 54.488 193.376ZM88.7558 192.544C87.3478 192.544 86.0358 192.192 84.8198 191.488C83.6038 190.763 82.6224 189.696 81.8758 188.288C81.1291 186.88 80.7558 185.131 80.7558 183.04C80.7558 181.632 81.0011 180.288 81.4918 179.008C81.9824 177.707 82.5371 176.555 83.1558 175.552C83.0491 175.275 82.9958 174.955 82.9958 174.592C82.9958 173.76 83.2304 172.939 83.6998 172.128C84.1904 171.296 84.8304 170.539 85.6198 169.856C86.4304 169.173 87.3371 168.629 88.3398 168.224C89.3424 167.819 90.3664 167.616 91.4118 167.616C93.0331 167.616 94.4624 168.021 95.6998 168.832C96.9371 169.643 97.9078 170.773 98.6118 172.224C99.3158 173.653 99.6678 175.307 99.6678 177.184C99.6678 179.445 99.3691 181.515 98.7718 183.392C98.1958 185.269 97.3958 186.891 96.3718 188.256C95.3691 189.621 94.2064 190.677 92.8838 191.424C91.5824 192.171 90.2064 192.544 88.7558 192.544ZM88.9478 172.64C88.9904 172.768 89.0118 172.917 89.0118 173.088C89.0118 173.408 88.9478 173.675 88.8198 173.888C88.6918 174.101 88.5211 174.336 88.3078 174.592C88.0304 174.912 87.7104 175.403 87.3478 176.064C87.0064 176.704 86.6758 177.451 86.3558 178.304C86.0358 179.157 85.7691 180.043 85.5558 180.96C85.3638 181.856 85.2678 182.709 85.2678 183.52C85.2678 184.949 85.5344 186.069 86.0677 186.88C86.6011 187.691 87.3904 188.096 88.4358 188.096C89.3104 188.096 90.1531 187.808 90.9638 187.232C91.7958 186.656 92.5318 185.877 93.1718 184.896C93.8118 183.893 94.3131 182.752 94.6758 181.472C95.0598 180.192 95.2518 178.837 95.2518 177.408C95.2518 176.384 95.1131 175.456 94.8358 174.624C94.5584 173.792 94.1638 173.131 93.6518 172.64C93.1398 172.149 92.5318 171.904 91.8278 171.904C91.2518 171.904 90.7184 171.979 90.2278 172.128C89.7584 172.256 89.3318 172.427 88.9478 172.64ZM107.863 193.376C106.796 193.376 106.039 193.12 105.591 192.608C105.164 192.117 104.951 191.605 104.951 191.072C104.951 190.603 105.058 190.165 105.271 189.76C105.506 189.333 105.911 188.992 106.487 188.736C107.063 188.48 107.884 188.373 108.951 188.416C110.018 187.861 111.095 187.179 112.183 186.368C113.292 185.557 114.348 184.661 115.351 183.68C116.375 182.699 117.282 181.696 118.071 180.672C118.882 179.627 119.511 178.603 119.959 177.6C120.428 176.576 120.663 175.616 120.663 174.72C120.663 173.76 120.364 173.035 119.767 172.544C119.191 172.053 118.38 171.808 117.335 171.808C116.439 171.808 115.618 171.915 114.871 172.128C114.124 172.32 113.463 172.555 112.887 172.832C112.311 173.109 111.82 173.355 111.415 173.568C111.031 173.76 110.722 173.856 110.487 173.856C110.082 173.856 109.719 173.685 109.399 173.344C109.079 172.981 108.983 172.512 109.111 171.936C109.196 171.552 109.452 171.093 109.879 170.56C110.306 170.027 110.892 169.493 111.639 168.96C112.386 168.427 113.271 167.989 114.295 167.648C115.34 167.285 116.514 167.104 117.815 167.104C119.906 167.104 121.602 167.744 122.903 169.024C124.226 170.304 124.887 172.256 124.887 174.88C124.887 176.608 124.428 178.304 123.511 179.968C122.615 181.632 121.42 183.211 119.927 184.704C118.434 186.197 116.802 187.563 115.031 188.8C116.631 188.736 117.879 188.64 118.775 188.512C119.671 188.363 120.386 188.235 120.919 188.128C121.474 188.021 122.007 187.968 122.519 187.968C123.244 187.968 123.81 188.117 124.215 188.416C124.62 188.715 124.823 189.141 124.823 189.696C124.823 190.101 124.716 190.496 124.503 190.88C124.311 191.264 123.927 191.616 123.351 191.936C122.775 192.235 121.943 192.469 120.855 192.64C119.767 192.832 118.338 192.928 116.567 192.928C115.522 192.928 114.444 192.917 113.335 192.896C112.247 192.875 111.191 192.843 110.167 192.8C109.57 193.013 109.1 193.163 108.759 193.248C108.439 193.333 108.14 193.376 107.863 193.376ZM151.863 188.864C151.863 189.163 151.777 189.472 151.607 189.792C151.436 190.091 151.084 190.379 150.551 190.656C150.039 190.933 149.26 191.179 148.215 191.392C147.191 191.605 145.825 191.776 144.119 191.904C142.433 192.032 140.321 192.096 137.783 192.096C136.375 192.096 135.276 192.011 134.487 191.84C133.719 191.669 133.153 191.445 132.791 191.168C132.428 190.891 132.193 190.581 132.087 190.24C132.001 189.899 131.959 189.557 131.959 189.216C131.937 188.661 132.097 188.128 132.439 187.616C132.78 187.104 133.399 186.56 134.295 185.984C135.169 185.429 136.161 184.843 137.271 184.224C138.38 183.584 139.489 182.912 140.599 182.208C141.708 181.504 142.732 180.757 143.671 179.968C144.609 179.157 145.367 178.293 145.943 177.376C146.519 176.459 146.807 175.477 146.807 174.432C146.807 173.259 145.975 172.469 144.311 172.064C142.668 171.637 139.969 171.605 136.215 171.968C135.617 172.032 135.148 171.904 134.807 171.584C134.465 171.243 134.295 170.795 134.295 170.24C134.295 169.813 134.529 169.365 134.999 168.896C135.468 168.405 136.268 167.989 137.399 167.648C138.529 167.285 140.076 167.104 142.039 167.104C144.876 167.104 147.116 167.829 148.759 169.28C150.423 170.709 151.255 172.725 151.255 175.328C151.255 176.629 150.839 177.952 150.007 179.296C149.196 180.64 147.873 182.027 146.039 183.456C144.204 184.864 141.761 186.368 138.711 187.968C140.865 187.755 142.935 187.563 144.919 187.392C146.903 187.221 148.577 187.136 149.943 187.136C150.561 187.136 151.031 187.307 151.351 187.648C151.692 187.968 151.863 188.373 151.863 188.864Z" fill="#E4E4E4"/>
<path d="M896.112 194.112C895.664 194.112 895.248 194.005 894.864 193.792C894.48 193.579 894.171 193.205 893.936 192.672C893.723 192.139 893.659 191.392 893.744 190.432C892.997 187.915 892.315 185.408 891.696 182.912C891.099 180.416 890.533 177.845 890 175.2C889.232 176.949 888.539 178.741 887.92 180.576C887.301 182.389 886.747 184.107 886.256 185.728C885.765 187.328 885.317 188.672 884.912 189.76C884.592 190.72 884.272 191.435 883.952 191.904C883.632 192.352 883.312 192.64 882.992 192.768C882.693 192.917 882.395 192.992 882.096 192.992C881.371 192.992 880.816 192.821 880.432 192.48C880.048 192.139 879.856 191.52 879.856 190.624C879.856 190.155 879.984 189.44 880.24 188.48C880.496 187.499 880.837 186.379 881.264 185.12C881.712 183.84 882.224 182.507 882.8 181.12C883.376 179.712 883.984 178.347 884.624 177.024C885.264 175.701 885.904 174.507 886.544 173.44C887.184 172.352 887.803 171.488 888.4 170.848C888.997 170.208 889.531 169.888 890 169.888C890.405 169.888 890.779 169.931 891.12 170.016C891.461 170.08 891.792 170.272 892.112 170.592C892.432 170.891 892.763 171.392 893.104 172.096C893.381 172.629 893.659 173.397 893.936 174.4C894.213 175.381 894.48 176.512 894.736 177.792C894.992 179.051 895.248 180.373 895.504 181.76C895.781 183.147 896.059 184.501 896.336 185.824C897.147 182.133 897.797 178.891 898.288 176.096C898.8 173.28 899.173 171.072 899.408 169.472C899.643 167.872 899.771 167.029 899.792 166.944C899.941 166.325 900.101 165.899 900.272 165.664C900.443 165.408 900.635 165.259 900.848 165.216C901.061 165.152 901.307 165.12 901.584 165.12C901.605 165.12 901.616 165.12 901.616 165.12C902.171 165.12 902.715 165.344 903.248 165.792C903.803 166.24 904.08 166.848 904.08 167.616C904.08 167.872 904.027 168.448 903.92 169.344C903.813 170.219 903.653 171.328 903.44 172.672C903.248 173.995 902.992 175.467 902.672 177.088C902.352 178.688 901.979 180.363 901.552 182.112C901.147 183.84 900.688 185.557 900.176 187.264C899.664 188.971 899.099 190.571 898.48 192.064C898.139 192.917 897.733 193.472 897.264 193.728C896.816 193.984 896.432 194.112 896.112 194.112ZM921.681 192.768C920.059 192.768 918.619 192.352 917.361 191.52C916.102 190.688 915.11 189.536 914.385 188.064C913.681 186.571 913.329 184.864 913.329 182.944C913.329 181.515 913.617 180.128 914.193 178.784C914.769 177.419 915.409 176.224 916.113 175.2C916.027 174.88 915.985 174.485 915.985 174.016C915.985 173.44 916.219 172.779 916.689 172.032C917.158 171.285 917.809 170.56 918.641 169.856C919.494 169.152 920.486 168.565 921.617 168.096C922.769 167.627 924.017 167.392 925.361 167.392C927.451 167.392 929.211 167.819 930.641 168.672C932.07 169.525 933.147 170.645 933.873 172.032C934.619 173.419 934.993 174.923 934.993 176.544C934.993 178.891 934.609 181.056 933.841 183.04C933.073 185.024 932.049 186.741 930.769 188.192C929.489 189.643 928.059 190.773 926.481 191.584C924.902 192.373 923.302 192.768 921.681 192.768ZM922.065 172.704C922.086 172.768 922.097 172.832 922.097 172.896C922.097 173.109 922.054 173.344 921.969 173.6C921.883 173.835 921.713 174.069 921.457 174.304C921.03 174.731 920.603 175.328 920.177 176.096C919.75 176.843 919.355 177.675 918.993 178.592C918.651 179.509 918.374 180.448 918.161 181.408C917.947 182.368 917.841 183.285 917.841 184.16C917.841 185.355 918.118 186.347 918.673 187.136C919.249 187.925 920.145 188.32 921.361 188.32C922.385 188.32 923.355 188.085 924.273 187.616C925.19 187.125 926.033 186.475 926.801 185.664C927.569 184.832 928.23 183.915 928.785 182.912C929.339 181.888 929.766 180.853 930.065 179.808C930.385 178.741 930.545 177.728 930.545 176.768C930.545 175.872 930.353 175.04 929.969 174.272C929.606 173.504 929.073 172.885 928.369 172.416C927.665 171.925 926.79 171.68 925.745 171.68C924.977 171.68 924.283 171.776 923.665 171.968C923.067 172.16 922.534 172.405 922.065 172.704ZM963.926 193.088C963.222 193.088 962.539 193.003 961.878 192.832C961.216 192.683 960.619 192.32 960.086 191.744C959.552 191.168 959.115 190.272 958.774 189.056C958.432 187.819 958.23 186.144 958.166 184.032C957.27 185.589 956.278 186.987 955.19 188.224C954.123 189.461 953.046 190.443 951.958 191.168C950.891 191.872 949.888 192.224 948.95 192.224C948.011 192.224 947.158 191.989 946.39 191.52C945.643 191.051 945.046 190.261 944.598 189.152C944.171 188.043 943.958 186.539 943.958 184.64C943.958 183.168 944.086 181.675 944.342 180.16C944.598 178.624 944.928 177.163 945.334 175.776C945.739 174.368 946.176 173.109 946.646 172C947.115 170.891 947.574 170.016 948.022 169.376C948.491 168.736 948.896 168.416 949.238 168.416C950.048 168.416 950.646 168.629 951.03 169.056C951.414 169.461 951.606 169.984 951.606 170.624C951.606 170.901 951.488 171.445 951.254 172.256C951.019 173.045 950.731 174.005 950.39 175.136C950.048 176.245 949.696 177.44 949.334 178.72C948.992 179.979 948.704 181.227 948.47 182.464C948.235 183.701 948.118 184.832 948.118 185.856C948.118 186.283 948.15 186.645 948.214 186.944C948.299 187.221 948.448 187.36 948.661 187.36C949.792 187.36 950.838 186.933 951.798 186.08C952.779 185.205 953.675 184.053 954.486 182.624C955.318 181.173 956.054 179.584 956.694 177.856C957.355 176.107 957.942 174.357 958.454 172.608C958.411 172.224 958.379 171.851 958.358 171.488C958.358 171.125 958.358 170.731 958.358 170.304C958.358 169.835 958.539 169.333 958.902 168.8C959.264 168.267 959.702 167.819 960.214 167.456C960.747 167.072 961.248 166.88 961.718 166.88C962.251 166.88 962.688 167.051 963.03 167.392C963.392 167.733 963.574 168.331 963.574 169.184C963.574 169.888 963.542 170.475 963.478 170.944C963.435 171.392 963.36 171.819 963.254 172.224C963.168 172.629 963.072 173.088 962.966 173.6C962.88 174.091 962.784 174.731 962.678 175.52C962.592 176.309 962.518 177.323 962.454 178.56C962.411 179.797 962.39 181.355 962.39 183.232C962.39 183.36 962.39 183.488 962.39 183.616C962.39 183.723 962.39 183.84 962.39 183.968C962.368 184.565 962.379 185.173 962.422 185.792C962.464 186.411 962.624 186.923 962.902 187.328C963.179 187.733 963.67 187.936 964.374 187.936C965.142 187.936 965.867 187.445 966.55 186.464C967.232 185.483 967.84 184.117 968.374 182.368C968.907 180.597 969.366 178.528 969.75 176.16C970.134 173.771 970.422 171.189 970.614 168.416C970.678 167.477 970.838 166.773 971.094 166.304C971.371 165.835 971.68 165.525 972.022 165.376C972.363 165.205 972.662 165.12 972.918 165.12C973.174 165.12 973.483 165.163 973.846 165.248C974.208 165.333 974.528 165.579 974.806 165.984C975.083 166.389 975.222 167.072 975.222 168.032C975.222 171.701 974.955 174.923 974.422 177.696C973.888 180.469 973.195 182.837 972.342 184.8C971.488 186.763 970.55 188.352 969.526 189.568C968.523 190.784 967.531 191.669 966.55 192.224C965.568 192.8 964.694 193.088 963.926 193.088Z" fill="#E4E4E4"/>
<path d="M146.488 35.088C145.784 35.088 145.101 35.0027 144.44 34.832C143.779 34.6827 143.181 34.32 142.648 33.744C142.115 33.168 141.677 32.272 141.336 31.056C140.995 29.8187 140.792 28.144 140.728 26.032C139.832 27.5893 138.84 28.9867 137.752 30.224C136.685 31.4613 135.608 32.4427 134.52 33.168C133.453 33.872 132.451 34.224 131.512 34.224C130.573 34.224 129.72 33.9893 128.952 33.52C128.205 33.0507 127.608 32.2613 127.16 31.152C126.733 30.0427 126.52 28.5387 126.52 26.64C126.52 25.168 126.648 23.6747 126.904 22.16C127.16 20.624 127.491 19.1627 127.896 17.776C128.301 16.368 128.739 15.1093 129.208 14C129.677 12.8907 130.136 12.016 130.584 11.376C131.053 10.736 131.459 10.416 131.8 10.416C132.611 10.416 133.208 10.6293 133.592 11.056C133.976 11.4613 134.168 11.984 134.168 12.624C134.168 12.9013 134.051 13.4453 133.816 14.256C133.581 15.0453 133.293 16.0053 132.952 17.136C132.611 18.2453 132.259 19.44 131.896 20.72C131.555 21.9787 131.267 23.2267 131.032 24.464C130.797 25.7013 130.68 26.832 130.68 27.856C130.68 28.2827 130.712 28.6453 130.776 28.944C130.861 29.2213 131.011 29.36 131.224 29.36C132.355 29.36 133.4 28.9333 134.36 28.08C135.341 27.2053 136.237 26.0533 137.048 24.624C137.88 23.1733 138.616 21.584 139.256 19.856C139.917 18.1067 140.504 16.3573 141.016 14.608C140.973 14.224 140.941 13.8507 140.92 13.488C140.92 13.1253 140.92 12.7307 140.92 12.304C140.92 11.8347 141.101 11.3333 141.464 10.8C141.827 10.2667 142.264 9.81867 142.776 9.456C143.309 9.072 143.811 8.88 144.28 8.88C144.813 8.88 145.251 9.05067 145.592 9.392C145.955 9.73333 146.136 10.3307 146.136 11.184C146.136 11.888 146.104 12.4747 146.04 12.944C145.997 13.392 145.923 13.8187 145.816 14.224C145.731 14.6293 145.635 15.088 145.528 15.6C145.443 16.0907 145.347 16.7307 145.24 17.52C145.155 18.3093 145.08 19.3227 145.016 20.56C144.973 21.7973 144.952 23.3547 144.952 25.232C144.952 25.36 144.952 25.488 144.952 25.616C144.952 25.7227 144.952 25.84 144.952 25.968C144.931 26.5653 144.941 27.1733 144.984 27.792C145.027 28.4107 145.187 28.9227 145.464 29.328C145.741 29.7333 146.232 29.936 146.936 29.936C147.704 29.936 148.429 29.4453 149.112 28.464C149.795 27.4827 150.403 26.1173 150.936 24.368C151.469 22.5973 151.928 20.528 152.312 18.16C152.696 15.7707 152.984 13.1893 153.176 10.416C153.24 9.47733 153.4 8.77333 153.656 8.304C153.933 7.83467 154.243 7.52533 154.584 7.376C154.925 7.20533 155.224 7.12 155.48 7.12C155.736 7.12 156.045 7.16267 156.408 7.248C156.771 7.33333 157.091 7.57867 157.368 7.984C157.645 8.38933 157.784 9.072 157.784 10.032C157.784 13.7013 157.517 16.9227 156.984 19.696C156.451 22.4693 155.757 24.8373 154.904 26.8C154.051 28.7627 153.112 30.352 152.088 31.568C151.085 32.784 150.093 33.6693 149.112 34.224C148.131 34.8 147.256 35.088 146.488 35.088ZM174.931 34.768C173.309 34.768 171.869 34.352 170.611 33.52C169.352 32.688 168.36 31.536 167.635 30.064C166.931 28.5707 166.579 26.864 166.579 24.944C166.579 23.5147 166.867 22.128 167.443 20.784C168.019 19.4187 168.659 18.224 169.363 17.2C169.277 16.88 169.235 16.4853 169.235 16.016C169.235 15.44 169.469 14.7787 169.939 14.032C170.408 13.2853 171.059 12.56 171.891 11.856C172.744 11.152 173.736 10.5653 174.867 10.096C176.019 9.62667 177.267 9.392 178.611 9.392C180.701 9.392 182.461 9.81867 183.891 10.672C185.32 11.5253 186.397 12.6453 187.123 14.032C187.869 15.4187 188.243 16.9227 188.243 18.544C188.243 20.8907 187.859 23.056 187.091 25.04C186.323 27.024 185.299 28.7413 184.019 30.192C182.739 31.6427 181.309 32.7733 179.731 33.584C178.152 34.3733 176.552 34.768 174.931 34.768ZM175.315 14.704C175.336 14.768 175.347 14.832 175.347 14.896C175.347 15.1093 175.304 15.344 175.219 15.6C175.133 15.8347 174.963 16.0693 174.707 16.304C174.28 16.7307 173.853 17.328 173.427 18.096C173 18.8427 172.605 19.6747 172.243 20.592C171.901 21.5093 171.624 22.448 171.411 23.408C171.197 24.368 171.091 25.2853 171.091 26.16C171.091 27.3547 171.368 28.3467 171.923 29.136C172.499 29.9253 173.395 30.32 174.611 30.32C175.635 30.32 176.605 30.0853 177.523 29.616C178.44 29.1253 179.283 28.4747 180.051 27.664C180.819 26.832 181.48 25.9147 182.035 24.912C182.589 23.888 183.016 22.8533 183.315 21.808C183.635 20.7413 183.795 19.728 183.795 18.768C183.795 17.872 183.603 17.04 183.219 16.272C182.856 15.504 182.323 14.8853 181.619 14.416C180.915 13.9253 180.04 13.68 178.995 13.68C178.227 13.68 177.533 13.776 176.915 13.968C176.317 14.16 175.784 14.4053 175.315 14.704ZM199.243 33.84C198.454 33.84 197.867 33.5307 197.483 32.912C197.099 32.272 196.907 31.12 196.907 29.456C196.907 27.3227 197.099 25.2213 197.483 23.152C197.888 21.0827 198.454 19.1413 199.179 17.328C199.926 15.5147 200.822 13.9253 201.867 12.56C202.934 11.1733 204.139 10.096 205.483 9.328C206.827 8.53867 208.288 8.144 209.867 8.144C212.214 8.144 213.952 8.77333 215.083 10.032C216.235 11.2693 216.811 13.0933 216.811 15.504C216.811 16.784 216.555 17.9253 216.043 18.928C215.531 19.9093 214.859 20.688 214.027 21.264C213.216 21.8187 212.342 22.096 211.403 22.096C210.87 22.096 210.304 22 209.707 21.808C210.859 23.3013 212.011 24.6027 213.163 25.712C214.336 26.8213 215.499 27.8453 216.651 28.784C217.824 29.7013 218.998 30.64 220.171 31.6C220.79 32.0907 221.142 32.6133 221.227 33.168C221.312 33.7227 221.163 34.192 220.779 34.576C220.416 34.9813 219.851 35.184 219.083 35.184C218.486 35.184 217.728 34.9173 216.811 34.384C215.894 33.872 214.902 33.1787 213.835 32.304C212.768 31.408 211.702 30.416 210.635 29.328C209.59 28.24 208.63 27.1307 207.755 26C206.902 24.8693 206.208 23.792 205.675 22.768C205.163 21.744 204.907 20.8693 204.907 20.144C204.907 19.4613 205.088 18.9387 205.451 18.576C205.814 18.192 206.283 18 206.859 18C207.328 18 207.755 18.064 208.139 18.192C208.544 18.32 208.971 18.384 209.419 18.384C209.888 18.384 210.379 18.256 210.891 18C211.424 17.744 211.872 17.3493 212.235 16.816C212.598 16.2613 212.779 15.5573 212.779 14.704C212.779 13.7653 212.512 13.136 211.979 12.816C211.467 12.496 210.774 12.336 209.899 12.336C208.683 12.336 207.584 12.7627 206.603 13.616C205.622 14.4693 204.768 15.6747 204.043 17.232C203.318 18.7893 202.731 20.624 202.283 22.736C201.856 24.848 201.568 27.152 201.419 29.648C201.334 31.2693 201.12 32.3787 200.779 32.976C200.438 33.552 199.926 33.84 199.243 33.84ZM248.583 33.36C248.583 33.9573 248.381 34.3947 247.975 34.672C247.57 34.9493 247.037 35.0987 246.375 35.12C245.629 35.12 244.775 34.8213 243.815 34.224C242.877 33.648 241.885 32.8693 240.839 31.888C239.794 30.9067 238.77 29.8187 237.767 28.624C236.765 27.408 235.837 26.192 234.983 24.976C234.429 27.2587 233.959 29.072 233.575 30.416C233.191 31.7387 232.807 32.688 232.423 33.264C232.061 33.84 231.623 34.128 231.111 34.128C230.365 34.128 229.863 33.808 229.607 33.168C229.351 32.5067 229.223 31.7173 229.223 30.8C229.223 30.16 229.266 29.5093 229.351 28.848C229.458 28.1653 229.618 27.3653 229.831 26.448C230.045 25.5093 230.333 24.3467 230.695 22.96C230.226 22.512 229.991 22.0107 229.991 21.456C229.991 21.0507 230.098 20.656 230.311 20.272C230.546 19.8667 230.983 19.536 231.623 19.28C232.221 17.3173 232.733 15.7173 233.159 14.48C233.586 13.2213 233.97 12.2507 234.311 11.568C234.653 10.8853 234.962 10.416 235.239 10.16C235.538 9.904 235.847 9.776 236.167 9.776C236.765 9.776 237.223 9.94667 237.543 10.288C237.863 10.6293 238.023 11.2267 238.023 12.08C238.023 12.4 237.927 13.0507 237.735 14.032C237.565 14.992 237.234 16.4107 236.743 18.288C238.621 16.8373 240.349 15.408 241.927 14C243.506 12.592 244.882 11.312 246.055 10.16C247.25 9.008 248.221 8.09067 248.967 7.408C249.714 6.72533 250.194 6.384 250.407 6.384C251.026 6.384 251.517 6.58667 251.879 6.992C252.263 7.376 252.455 7.81333 252.455 8.304C252.455 8.79467 252.242 9.30667 251.815 9.84C251.346 10.3947 250.717 11.0987 249.927 11.952C249.138 12.8053 248.253 13.7333 247.271 14.736C246.29 15.7173 245.255 16.6987 244.167 17.68C243.079 18.64 241.981 19.5147 240.871 20.304C239.783 21.0933 238.727 21.712 237.703 22.16C237.917 22.3733 238.141 22.6187 238.375 22.896C238.631 23.152 238.898 23.44 239.175 23.76C239.901 24.5493 240.765 25.424 241.767 26.384C242.77 27.3227 243.794 28.2507 244.839 29.168C245.906 30.064 246.866 30.8533 247.719 31.536C248.018 31.8133 248.231 32.0907 248.359 32.368C248.509 32.624 248.583 32.9547 248.583 33.36Z" fill="#107DFE"/>
</svg>
